HIERARCHY
ROOT root
{
	OFFSET 0.000000 0.000000 0.000000
	CHANNELS 6 Xposition Yposition Zposition Zrotation Yrotation Xrotation
	JOINT lhip
	{
		OFFSET 0.058581 -0.082280 -0.017664
		CHANNELS 3 Zrotation Yrotation Xrotation
		JOINT lknee
		{
			OFFSET 0.043451 -0.386469 0.008037
			CHANNELS 3 Zrotation Yrotation Xrotation
			JOINT lankle
			{
				OFFSET -0.014790 -0.426874 -0.037428
				CHANNELS 3 Zrotation Yrotation Xrotation
				JOINT ltoe
				{
					OFFSET 0.041054 -0.060286 0.122042
					CHANNELS 3 Zrotation Yrotation Xrotation
					End Site
					{
						OFFSET 0.000000 0.000000 0.000000
					}
				}
			}
		}
	}
	JOINT rhip
	{
		OFFSET -0.060310 -0.090513 -0.013543
		CHANNELS 3 Zrotation Yrotation Xrotation
		JOINT rknee
		{
			OFFSET -0.043257 -0.383688 -0.004843
			CHANNELS 3 Zrotation Yrotation Xrotation
			JOINT rankle
			{
				OFFSET 0.019056 -0.420046 -0.034562
				CHANNELS 3 Zrotation Yrotation Xrotation
				JOINT rtoe
				{
					OFFSET -0.034840 -0.062106 0.130323
					CHANNELS 3 Zrotation Yrotation Xrotation
					End Site
					{
						OFFSET 0.000000 0.000000 0.000000
					}
				}
			}
		}
	}
	JOINT lowerback
	{
		OFFSET 0.004439 0.124404 -0.038385
		CHANNELS 3 Zrotation Yrotation Xrotation
		JOINT upperback
		{
			OFFSET 0.004488 0.137956 0.026820
			CHANNELS 3 Zrotation Yrotation Xrotation
			JOINT chest
			{
				OFFSET -0.002265 0.056032 0.002855
				CHANNELS 3 Zrotation Yrotation Xrotation
				JOINT lowerneck
				{
					OFFSET -0.013390 0.211636 -0.033468
					CHANNELS 3 Zrotation Yrotation Xrotation
					JOINT upperneck
					{
						OFFSET 0.010113 0.088937 0.050410
						CHANNELS 3 Zrotation Yrotation Xrotation
						End Site
						{
							OFFSET 0.000000 0.000000 0.000000
						}
					}
				}
				JOINT lclavicle
				{
					OFFSET 0.071702 0.114000 -0.018898
					CHANNELS 3 Zrotation Yrotation Xrotation
					JOINT lshoulder
					{
						OFFSET 0.122921 0.045205 -0.019046
						CHANNELS 3 Zrotation Yrotation Xrotation
						JOINT lelbow
						{
							OFFSET 0.255332 -0.015649 -0.022946
							CHANNELS 3 Zrotation Yrotation Xrotation
							JOINT lwrist
							{
								OFFSET 0.265709 0.012698 -0.007375
								CHANNELS 3 Zrotation Yrotation Xrotation
								End Site
								{
									OFFSET 0.000000 0.000000 0.000000
								}
							}
						}
					}
				}
				JOINT rclavicle
				{
					OFFSET -0.082954 0.112472 -0.023707
					CHANNELS 3 Zrotation Yrotation Xrotation
					JOINT rshoulder
					{
						OFFSET -0.113228 0.046853 -0.008472
						CHANNELS 3 Zrotation Yrotation Xrotation
						JOINT relbow
						{
							OFFSET -0.260127 -0.014369 -0.031269
							CHANNELS 3 Zrotation Yrotation Xrotation
							JOINT rwrist
							{
								OFFSET -0.269108 0.006794 -0.006027
								CHANNELS 3 Zrotation Yrotation Xrotation
								End Site
								{
									OFFSET 0.000000 0.000000 0.000000
								}
							}
						}
					}
				}
			}
		}
	}
}
MOTION
Frames: 14
Frame Time: 0.033333
0.022268 0.480847 0.999660 175.918733 -1.340109 84.850568 5.065855 3.012161 7.577826 -4.946544 -3.313718 1.085277 -0.700893 9.076762 -5.879740 0.000000 -0.000000 0.000000 -5.693025 -3.097620 4.634908 2.838317 -0.487063 7.913909 3.364191 -4.382352 -8.443185 0.000000 -0.000000 0.000000 -0.842194 0.841280 4.298344 -0.141931 -2.748744 6.325564 -0.550359 -0.347388 -0.224382 1.820252 2.360582 -2.097821 5.049598 -0.726795 -3.523953 -28.951024 -0.177389 2.474956 -48.999349 -3.252824 7.496926 2.507036 -17.743500 -1.054796 -15.142518 -20.202049 -5.855388 28.185706 5.149852 4.167011 52.157102 3.926278 12.616231 -5.201650 18.991864 0.505112 17.573732 13.464931 -4.361191 
0.022275 0.480666 0.999502 175.899204 -1.326925 84.927924 5.068472 2.950306 7.498962 -4.948231 -3.331687 1.068505 -0.708505 9.157768 -5.849477 0.000000 -0.000000 0.000000 -5.663781 -3.057038 4.543847 2.832288 -0.453196 7.913457 3.450236 -4.457333 -8.444471 0.000000 -0.000000 0.000000 -0.828094 0.812441 4.165145 -0.181327 -2.709113 6.325959 -0.563199 -0.310419 -0.158625 1.852034 2.305771 -2.243177 5.008870 -0.711682 -3.291426 -28.783386 -0.209171 2.498040 -49.129887 -3.235123 7.523654 2.525634 -17.838810 -0.936807 -15.009726 -20.146497 -6.005019 28.117329 5.168092 4.261725 52.249959 3.969280 12.668545 -5.244544 19.036912 0.488656 17.449423 13.464617 -4.486444 
0.022328 0.480403 0.999371 175.865310 -1.318067 85.026832 5.050782 2.849756 7.399121 -4.942754 -3.350795 1.048986 -0.730517 9.277945 -5.799761 0.000000 -0.000000 0.000000 -5.633463 -3.006442 4.436260 2.852803 -0.412313 7.907861 3.706819 -4.570267 -8.409709 0.000000 -0.000000 0.000000 -0.813219 0.778230 3.959510 -0.235712 -2.646896 6.365923 -0.575270 -0.273152 -0.044930 1.879537 2.239838 -2.406384 4.934116 -0.675017 -3.126099 -28.536266 -0.269558 2.517854 -49.316565 -3.184844 7.553706 2.532019 -18.104224 -0.788067 -14.844970 -20.109407 -6.231884 27.980490 5.225151 4.369046 52.437604 4.024247 12.741868 -5.302213 19.073188 0.516855 17.364043 13.453196 -4.664147 
0.022359 0.480273 0.999385 175.898621 -1.295857 84.994893 5.077509 2.830783 7.394955 -4.946543 -3.371692 1.087853 -0.719315 9.295192 -5.835030 0.000000 -0.000000 0.000000 -5.585371 -3.003566 4.435453 2.790666 -0.404351 7.958976 3.595159 -4.577367 -8.447566 0.000000 -0.000000 0.000000 -0.822056 0.768997 3.993060 -0.236231 -2.637196 6.334134 -0.561603 -0.270523 -0.035269 1.897921 2.216165 -2.383704 4.912126 -0.630149 -3.087466 -28.457039 -0.296252 2.484685 -49.375271 -3.176490 7.585395 2.536152 -18.093912 -0.776863 -14.871569 -20.050323 -6.254862 27.968858 5.215813 4.381648 52.460607 4.024128 12.754290 -5.318458 18.988965 0.504288 17.446919 13.364130 -4.707325 
0.022309 0.480119 0.999364 175.894750 -1.303803 85.018299 5.049793 2.811671 7.369086 -4.936844 -3.381359 1.082801 -0.689586 9.278078 -5.816576 0.000000 -0.000000 0.000000 -5.587702 -2.982779 4.397474 2.826749 -0.402051 7.983221 3.844443 -4.607175 -8.408262 0.000000 -0.000000 0.000000 -0.845906 0.789619 3.954242 -0.234797 -2.624374 6.347618 -0.555135 -0.287932 -0.047308 1.919505 2.225759 -2.387145 4.921939 -0.612192 -3.047616 -28.419890 -0.306228 2.497210 -49.410279 -3.185523 7.591490 2.557374 -18.064671 -0.777110 -14.892885 -20.065604 -6.257820 27.971108 5.237809 4.416601 52.464700 4.034089 12.747183 -5.324910 18.922046 0.407957 17.484015 13.373279 -4.787881 
0.022333 0.480006 0.999334 175.934835 -1.292581 85.005416 5.078422 2.840411 7.199760 -4.951380 -3.331909 1.401442 -0.712682 9.221387 -5.960398 0.000000 -0.000000 0.000000 -5.560570 -2.988472 4.368252 2.796005 -0.424263 8.066207 3.749850 -4.628653 -8.500671 0.000000 -0.000000 0.000000 -0.856741 0.776550 3.952428 -0.227418 -2.628458 6.316202 -0.565228 -0.305695 -0.022643 1.961760 2.268948 -2.374807 4.905106 -0.628318 -2.987567 -28.374482 -0.299144 2.498544 -49.392475 -3.159302 7.673042 2.518939 -18.093082 -0.715731 -14.822727 -19.999651 -6.278710 27.956312 5.265066 4.419048 52.515857 4.038078 12.759910 -5.314120 18.762656 0.312603 17.439648 13.388690 -4.899649 
0.022218 0.479786 0.999354 175.944289 -1.300759 84.978991 5.064337 2.851610 7.146481 -4.982059 -3.337907 1.560852 -0.717533 9.188422 -6.020988 0.000000 -0.000000 0.000000 -5.570586 -2.967398 4.376057 2.799055 -0.402797 8.069828 3.763357 -4.639296 -8.478320 0.000000 -0.000000 0.000000 -0.882231 0.756711 3.985248 -0.231176 -2.618777 6.296202 -0.554510 -0.276651 -0.017378 1.977630 2.246112 -2.458394 4.903804 -0.587966 -2.880452 -28.388552 -0.323113 2.565929 -49.342111 -3.142088 7.703655 2.552407 -18.181714 -0.617368 -14.723612 -20.048893 -6.408385 27.948977 5.289759 4.480221 52.529478 4.041103 12.748641 -5.311493 18.743826 0.314150 17.417985 13.404480 -5.034345 
0.022194 0.479653 0.999425 175.958030 -1.298088 84.928985 5.062493 2.862672 7.167301 -4.967422 -3.369711 1.619448 -0.709630 9.163840 -6.117605 0.000000 -0.000000 0.000000 -5.566623 -2.968686 4.413142 2.777659 -0.445495 8.088908 3.558321 -4.632573 -8.503147 0.000000 -0.000000 0.000000 -0.864985 0.764800 4.012878 -0.244651 -2.612972 6.321429 -0.567917 -0.302151 -0.028133 1.990830 2.266126 -2.469567 4.902193 -0.526863 -2.835794 -28.366799 -0.318420 2.557719 -49.292248 -3.164858 7.695643 2.490338 -18.147718 -0.564546 -14.692714 -20.117606 -6.363093 27.974845 5.300227 4.452851 52.504984 4.052552 12.746354 -5.275161 18.655143 0.300704 17.479121 13.485386 -5.045591 
0.022183 0.479435 0.999445 175.979566 -1.306124 84.916188 5.043081 2.846607 7.086473 -4.977198 -3.474802 1.786850 -0.671115 9.199358 -6.175036 0.000000 -0.000000 0.000000 -5.573891 -2.967100 4.383178 2.779563 -0.413613 8.156803 3.583738 -4.646787 -8.551272 0.000000 -0.000000 0.000000 -0.912158 0.783562 3.959649 -0.203669 -2.616640 6.418979 -0.559708 -0.294952 -0.024345 1.968011 2.244064 -2.523841 4.926458 -0.552912 -2.837261 -28.365070 -0.371236 2.541643 -49.239647 -3.171924 7.761380 2.463414 -18.169734 -0.480620 -14.699739 -20.117745 -6.336741 27.995921 5.290292 4.463648 52.460302 4.028783 12.713185 -5.299060 18.800743 0.302677 17.494772 13.524488 -5.059316 
0.022108 0.478998 0.999384 176.002215 -1.322760 84.921858 5.019045 2.827614 6.740964 -5.022950 -3.478369 2.389800 -0.575209 9.233655 -6.421033 0.000000 -0.000000 0.000000 -5.566431 -2.987691 4.229047 2.747246 -0.381649 8.385991 3.517236 -4.714766 -8.586668 0.000000 -0.000000 0.000000 -0.941486 0.878386 3.945460 -0.161657 -2.655162 6.506877 -0.578136 -0.316882 -0.069939 1.963983 2.308518 -2.579489 4.958915 -0.611794 -2.817022 -28.340550 -0.503124 2.452594 -49.071945 -3.174016 7.844446 2.196713 -18.189996 -0.375503 -14.813266 -19.906969 -6.136115 28.096165 5.203819 4.510601 52.250248 3.868968 12.664341 -5.387553 19.673653 0.252241 17.519918 13.561585 -4.888399 
0.022027 0.478731 0.999380 176.051848 -1.347774 84.754063 5.014690 2.731077 6.884606 -5.101302 -3.581464 2.390911 -0.550105 9.323512 -6.386372 0.000000 -0.000000 0.000000 -5.577693 -2.992904 4.341804 2.726796 -0.331537 8.485302 3.588305 -4.826717 -8.655350 0.000000 -0.000000 0.000000 -0.990144 1.018298 4.120040 -0.092473 -2.726026 6.637368 -0.542002 -0.276297 -0.106390 1.844434 2.361545 -2.681866 5.025562 -0.721344 -2.817439 -28.570420 -0.899440 2.422998 -48.400000 -2.974396 7.820545 1.513811 -18.734688 0.115247 -15.096254 -19.893381 -5.828519 28.271808 4.981722 4.521854 51.560975 3.124894 12.736958 -5.443773 22.777277 1.103431 17.538423 13.746912 -4.144752 
0.021976 0.477986 0.999280 176.022893 -1.340446 84.741780 5.025254 2.641106 6.722356 -5.141986 -3.513348 2.641921 -0.396990 9.334798 -6.412757 0.000000 -0.000000 0.000000 -5.527043 -3.023574 4.105672 2.674126 -0.249524 8.830747 3.643972 -4.896573 -8.726880 0.000000 -0.000000 0.000000 -0.979898 1.270506 4.211985 0.050197 -2.814412 6.790312 -0.589541 -0.191430 -0.336466 1.581874 2.306922 -2.828931 5.247437 -0.939310 -2.759807 -28.877853 -1.608385 2.289099 -47.429809 -2.438813 8.156176 0.738900 -20.029464 0.964246 -15.785258 -19.919307 -5.655291 28.286495 4.586175 4.540373 50.394372 1.702915 13.151960 -5.130673 29.034013 3.013363 17.837550 14.715646 -3.228129 
0.021453 0.477356 0.999408 176.199135 -1.405148 84.597408 4.923021 2.673726 6.618230 -5.133219 -3.609206 3.012365 -0.327453 9.173011 -6.499841 0.000000 -0.000000 0.000000 -5.558071 -2.776224 4.187714 2.643052 -0.492747 8.929186 3.768811 -5.065054 -8.785871 0.000000 -0.000000 0.000000 -0.967128 1.307660 4.458362 0.103772 -2.942435 6.789615 -0.658025 -0.271529 -0.407585 1.382985 2.389399 -2.906286 5.314351 -0.904820 -2.727406 -29.028677 -2.262680 2.168842 -46.385078 -1.622634 8.550349 -0.140056 -22.888789 2.218614 -16.328313 -19.937505 -5.573685 27.730045 4.285358 4.397515 49.155971 0.325465 13.861592 -4.350971 37.607584 5.386957 19.032653 15.856136 -3.541537 
0.021335 0.476243 0.999231 176.215669 -1.208192 84.675500 5.487758 3.215364 6.086881 -5.479837 -3.264065 3.731580 -1.472593 8.088079 -6.490899 0.000000 -0.000000 0.000000 -5.317418 -3.336371 3.713108 2.659184 0.605999 9.518953 4.372514 -5.593746 -9.189080 0.000000 -0.000000 0.000000 -1.223658 1.241772 4.526220 1.043603 -2.792104 6.227890 -1.085103 0.287483 0.125576 2.090263 1.810987 -3.702416 3.827277 -1.202742 -1.428680 -29.620864 -1.389540 4.879628 -44.193782 -4.951536 9.574851 -2.443935 -26.063323 9.121214 -12.855910 -22.231894 -16.320521 28.630457 0.922584 5.585859 44.731586 1.801633 15.097612 -2.379182 50.234612 12.852547 22.251505 17.543354 -12.663646 
